<svg width="16" height="16" xmlns="http://www.w3.org/2000/svg">

 <g>
  <title>Layer 1</title>
  <rect stroke="#000" rx="1" stroke-width="0.2" id="svg_3" height="3" width="3" y="1" x="2" fill="#e0e0e0"/>
  <path stroke="#000" id="svg_7" d="m8.00235,7.37753c-0.33804,0 -0.61196,0.27392 -0.61196,0.61196c0,0.33789 0.27392,0.61196 0.61196,0.61196c0.07746,0 0.15083,-0.01599 0.21904,-0.04233l0.13108,0.20148l0.21308,-0.13876l-0.13029,-0.20007c0.11054,-0.1107 0.17906,-0.26357 0.17906,-0.43228c0,-0.33804 -0.27392,-0.61196 -0.61196,-0.61196zm-0.00235,-1.65635c-1.25857,0 -2.27882,1.02025 -2.27882,2.27882c0,1.25857 1.02025,2.27882 2.27882,2.27882c1.25857,0 2.27882,-1.02025 2.27882,-2.27882c0,-1.25857 -1.02025,-2.27882 -2.27882,-2.27882zm1.59521,3.03283c-0.03779,0.07902 -0.08043,0.15522 -0.12951,0.22735l-0.49515,-0.10646c-0.07542,0.08247 -0.16134,0.15585 -0.2562,0.21716l0.01866,0.50205c-0.07949,0.03606 -0.16118,0.06601 -0.24601,0.08937l-0.30653,-0.39418c-0.05833,0.008 -0.11759,0.01348 -0.17812,0.01348c-0.05582,0 -0.1107,-0.00455 -0.16479,-0.0116l-0.30496,0.39198c-0.08482,-0.02368 -0.16698,-0.05362 -0.24616,-0.08921l0.01834,-0.49327c-0.09941,-0.0624 -0.18941,-0.13798 -0.26843,-0.22374l-0.48198,0.10317c-0.04908,-0.0715 -0.09141,-0.14801 -0.12951,-0.22704l0.32738,-0.36203c-0.03544,-0.11023 -0.0555,-0.22751 -0.06037,-0.34855l-0.434,-0.22954c0.00862,-0.08827 0.02587,-0.17357 0.04719,-0.25761l0.48355,-0.06695c0.04547,-0.11007 0.10583,-0.21198 0.17796,-0.30449l-0.18533,-0.45485c0.06256,-0.06099 0.13014,-0.11665 0.20116,-0.16777l0.41754,0.26216c0.10192,-0.05284 0.21151,-0.09298 0.32691,-0.11759l0.15178,-0.47053c0.04359,-0.00329 0.08702,-0.00659 0.13124,-0.00659c0.04422,0 0.0878,0.00345 0.13124,0.00659l0.15303,0.47477c0.11289,0.02556 0.21967,0.06523 0.31923,0.11759l0.42397,-0.26608c0.07134,0.05111 0.13907,0.10678 0.20148,0.16777l-0.19066,0.46818c0.06711,0.08843 0.12434,0.18517 0.16745,0.28928l0.49938,0.06915c0.02117,0.08388 0.03873,0.16949 0.04735,0.25761l-0.44952,0.2377c-0.00533,0.11383 -0.02352,0.22421 -0.05566,0.32926l0.33804,0.37348z" stroke-width="0.1" fill="#e0e0e0"/>
  <rect stroke="#000" rx="1" stroke-width="0.2" id="svg_8" height="3" width="3" y="4" x="12" fill="#e0e0e0"/>
  <rect stroke="#000" rx="1" stroke-width="0.2" id="svg_9" height="3" width="3" y="11" x="2" fill="#e0e0e0"/>
  <g id="svg_31">
   <path id="svg_23" d="m7.46381,12.56836c-0.42895,1.50134 -0.37534,1.28686 -0.38606,1.26542" opacity="NaN" stroke-width="0.2" stroke="#000" fill="none"/>
   <g id="svg_26">
    <path id="svg_21" d="m6.98123,13.80161c0.10724,-0.10724 6.00536,2.19839 6.3807,-4.07507" opacity="NaN" stroke-width="0.2" stroke="#000" fill="none"/>
    <path stroke="#000" id="svg_22" d="m7.41018,12.67783c0.0793,-0.08895 4.44095,1.82355 4.7185,-3.38024" opacity="NaN" stroke-width="0.2" fill="none"/>
    <path id="svg_25" d="m13.30831,9.72654c0.2681,0 1.34048,0.05362 1.32976,0.03217c0.01072,0.02145 -1.75871,-2.01609 -1.76944,-2.03753c0.01072,0.02145 -1.81233,1.36193 -1.82306,1.34048c0.01072,0.02145 1.02949,0.23592 1.02949,0.23592" opacity="NaN" stroke-width="0.2" stroke="#000" fill="none"/>
   </g>
  </g>
  <g transform="rotate(63.3431 8.63811 2.58736)" stroke="null" id="svg_37">
   <path stroke="#000" id="svg_32" d="m10.79834,1.57687c0.27695,-0.92325 0.24233,-0.79136 0.24926,-0.77817" opacity="NaN" stroke-width="0.2" fill="none"/>
   <g stroke="null" id="svg_36">
    <path stroke="#000" id="svg_33" d="m11.10992,0.81848c-0.06924,0.06595 -3.87731,-1.3519 -4.11964,2.50596" opacity="NaN" stroke-width="0.2" fill="none"/>
    <path stroke="#000" id="svg_34" d="m10.83297,1.50955c-0.05121,0.0547 -2.86726,-1.12139 -3.04646,2.07868" opacity="NaN" stroke-width="0.2" fill="none"/>
    <path stroke="#000" id="svg_35" d="m7.0249,3.32445c-0.1731,0 -0.86547,-0.03297 -0.85855,-0.01978c-0.00692,-0.01319 1.13549,1.23979 1.14242,1.25298c-0.00693,-0.01319 1.17011,-0.83752 1.17703,-0.82433c-0.00692,-0.01319 -0.66468,-0.14509 -0.66468,-0.14509" opacity="NaN" stroke-width="0.2" fill="none"/>
   </g>
  </g>
  <path stroke="#000" id="svg_51" d="m1.67575,4.95442l1.01934,-0.07507l-0.03951,3.53887l0.82969,-0.05362c0.0079,0.02145 -0.94032,1.46917 -1.01934,1.57641c-0.07902,0.10724 -1.22479,-1.23324 -1.23269,-1.25469c0.0079,0.02145 0.67956,-0.08579 0.67956,-0.08579c0,0 -0.07902,0.37534 -0.23706,-3.64611z" opacity="NaN" stroke-width="0.2" fill="none"/>
  <path stroke="#000" id="svg_52" d="m4.9836,9.73968l-0.995,0.07266l0.03856,-3.42551l-0.80989,0.0519c-0.00771,-0.02076 0.91788,-1.42211 0.99501,-1.52591c0.07713,-0.1038 1.19556,1.19374 1.20327,1.2145c-0.00771,-0.02075 -0.66334,0.08304 -0.66334,0.08304c0,0 0.07713,-0.36331 0.23139,3.52932z" opacity="NaN" stroke-width="0.2" fill="none"/>
 </g>
</svg>