<svg width="16" height="16" xmlns="http://www.w3.org/2000/svg">
 <g>
  <title>Layer 1</title>
  <rect fill="none" stroke="#000" x="-42.61059" y="-16.61714" width="10.86538" height="10.86538" id="svg_8"/>
  <path stroke-width="0.1" id="svg_7" d="m3.06906,7.40533l0.90838,-1.43023l1.57325,-0.8258l1.81677,0l1.57325,0.8258l0.90838,1.43023l0,1.65161l-0.90838,1.43023l-1.57325,0.8258l-1.81677,0l-1.57325,-0.8258l-0.90838,-1.43023l0,-1.65161z" stroke="#000" fill="#666666"/>
  <path transform="rotate(39.7401 12.1837 12.3309)" stroke="#000" id="svg_10" d="m15.20714,12.29162c-0.00562,-0.75708 0.0036,-1.51517 -0.04621,-2.27091c-1.22387,0.24861 -2.43331,0.65539 -3.63656,1.02121c-0.0646,-0.37123 -0.03419,-0.67916 -0.09032,-1.02239c-0.77302,0.72224 -1.53906,1.45476 -2.27371,2.22217c0.70483,0.8705 1.51329,1.62647 2.30698,2.40059c0.0257,-0.3605 0.05141,-0.72099 0.07711,-1.08149c1.16979,0.34876 2.40687,0.70935 3.58422,1.02819c0.08007,-0.7357 0.07771,-1.53691 0.07849,-2.29737z" stroke-width="0.1" fill="#666666"/>
  <path transform="rotate(39.7401 2.12298 2.26135)" stroke="#000" id="svg_11" d="m4.86084,2.22206c-0.00509,-0.75708 0.00326,-1.51517 -0.04184,-2.27092c-1.10829,0.24861 -2.2035,0.65539 -3.29311,1.02121c-0.05849,-0.37122 -0.03096,-0.67916 -0.08178,-1.02238c-0.70001,0.72223 -1.39371,1.45476 -2.05898,2.22216c0.63826,0.8705 1.37036,1.62647 2.0891,2.40059c0.02327,-0.36049 0.04655,-0.72099 0.06983,-1.08149c1.0593,0.34877 2.17955,0.70936 3.24571,1.02819c0.0725,-0.7357 0.07037,-1.5369 0.07107,-2.29736z" stroke-width="0.1" fill="#666666"/>
  <path transform="rotate(133.656 9.48837 2.92462)" stroke="#000" id="svg_12" d="m7.1581,2.89885c0.00433,-0.49658 -0.00277,-0.99381 0.03561,-1.48952c0.9433,0.16307 1.87547,0.42988 2.80287,0.66982c0.04978,-0.24349 0.02635,-0.44547 0.0696,-0.67059c0.5958,0.47372 1.18623,0.95419 1.75246,1.45753c-0.54324,0.57097 -1.16635,1.06682 -1.7781,1.57457c-0.01981,-0.23645 -0.03962,-0.4729 -0.05943,-0.70936c-0.90161,0.22876 -1.85508,0.46528 -2.76253,0.6744c-0.06171,-0.48255 -0.0599,-1.00807 -0.06049,-1.50686z" stroke-width="0.1" fill="#666666"/>
  <path transform="rotate(133.656 12.4184 5.24547)" stroke="#000" id="svg_13" d="m14.56164,5.2197c-0.00398,-0.49658 0.00255,-0.99381 -0.03275,-1.48952c-0.8676,0.16307 -1.72496,0.42988 -2.57794,0.66982c-0.04578,-0.24348 -0.02423,-0.44546 -0.06401,-0.67058c-0.54798,0.47371 -1.09103,0.95419 -1.61182,1.45753c0.49964,0.57097 1.07275,1.06682 1.6354,1.57457c0.01822,-0.23645 0.03643,-0.47291 0.05466,-0.70936c0.82925,0.22876 1.7062,0.46528 2.54083,0.6744c0.05676,-0.48255 0.05508,-1.00807 0.05564,-1.50686z" stroke-width="0.1" fill="#666666"/>
 </g>

</svg>